Coordinates
version=1
nRows=8
nColumns=28
inDegrees=yes

Units are S.I. units (second, meters, Newtons, ...)
If the header above contains a line with 'inDegrees', this indicates whether rotational values are in degrees (yes) or radians (no).

endheader
time	pelvis_tilt	pelvis_list	pelvis_rotation	pelvis_tx	pelvis_ty	pelvis_tz	hip_flexion_r	hip_adduction_r	hip_rotation_r	knee_angle_r	knee_rotation_r	knee_adduction_r	ankle_angle_r	subtalar_angle_r	mtp_angle_r	hip_flexion_l	hip_adduction_l	hip_rotation_l	knee_angle_l	knee_rotation_l	knee_adduction_l	ankle_angle_l	subtalar_angle_l	mtp_angle_l	lumbar_extension	lumbar_bending	lumbar_rotation
      0.58000000	     10.39693218	      7.04951973	    -90.98310869	     -0.21518969	      0.95861906	     -0.15290447	     36.08635593	    -10.74922525	     19.82095935	    -27.74838868	     -7.35125510	      5.53307593	      6.46131410	     -5.10356902	      0.99720154	      9.81861841	     13.33219312	     15.73298139	    -20.06761070	      1.56889712	     -4.19977483	     24.07006517	     -6.60384015	     -7.59845016	      0.00000000	      0.00000000	      0.00000000
      0.59000000	     10.46014686	      6.94301748	    -90.62666187	     -0.21578977	      0.95800965	     -0.14185583	     35.24107342	    -10.65953562	     20.49365750	    -23.98925580	     -8.04097443	      4.40321532	      6.69332606	     -3.31204110	      1.35126584	      8.76101983	     13.32188121	     15.83480494	    -19.78822550	      1.45785738	     -4.12471911	     24.45465317	     -5.91278933	     -7.50263582	      0.00000000	      0.00000000	      0.00000000
      0.60000000	     10.28767361	      7.20718462	    -90.65147169	     -0.21718529	      0.95689683	     -0.13170411	     34.88391058	    -10.30163316	     20.95194567	    -20.15105872	     -8.41788520	      3.54940869	      6.77345949	     -2.26170797	      1.61682921	      8.29085903	     12.80810690	     15.69266269	    -19.56564310	      1.35845571	     -4.47573809	     24.93662519	     -5.66261228	     -7.33804262	      0.00000000	      0.00000000	      0.00000000
      0.61000000	     10.09807004	      7.33477588	    -90.33447218	     -0.21826179	      0.95579702	     -0.12112646	     34.24714190	    -10.08682578	     21.04771027	    -16.43974218	     -9.09070800	      2.50132512	      7.35210335	     -0.49778995	      1.85165628	      7.68566343	     12.37138283	     15.64355585	    -19.54660563	      1.19883764	     -4.68755931	     25.59104423	     -5.11412553	     -7.17997863	      0.00000000	      0.00000000	      0.00000000
      0.62000000	      9.90094782	      7.44676352	    -90.12501064	     -0.21960985	      0.95460148	     -0.11034907	     33.56985387	     -9.83126878	     21.18018905	    -12.76874538	    -10.18439184	      1.46194725	      7.93574211	      1.87011721	      2.24282251	      7.05117720	     11.89433823	     15.48290145	    -19.47241317	      1.00629887	     -4.90476916	     26.25555244	     -4.63727036	     -6.99039901	      0.00000000	      0.00000000	      0.00000000
      0.63000000	      9.61070813	      7.56877273	    -89.86405074	     -0.22084042	      0.95345036	     -0.09936169	     32.57207452	     -9.73028855	     21.30909007	     -8.62015731	    -10.80808301	      0.72061236	      8.05515319	      2.62422360	      2.65674672	      6.48404054	     11.33691966	     15.28492935	    -19.55378025	      0.73275434	     -5.12930609	     26.80714042	     -4.23092775	     -6.77777422	      0.00000000	      0.00000000	      0.00000000
      0.64000000	      9.38532122	      7.90159094	    -89.61711520	     -0.22144255	      0.95180116	     -0.08866592	     31.91668741	     -9.85369923	     21.20781695	     -4.72690500	    -11.26773386	      0.27398226	      7.83234184	      2.73495405	      3.23140628	      6.21846788	     10.95985136	     15.13940388	    -19.76873165	      0.54061965	     -5.28046588	     27.34904436	     -3.91581856	     -6.56557567	      0.00000000	      0.00000000	      0.00000000
      0.65000000	      9.53696493	      8.15006508	    -89.44498653	     -0.22234470	      0.94967264	     -0.07762842	     31.72804822	    -10.08486172	     21.01601272	     -2.19183133	    -12.40629980	     -0.23119365	      8.06141544	      4.16771043	      3.34587323	      5.83243545	     10.97157626	     14.82766939	    -19.95068983	      0.22386258	     -5.36260060	     27.86216656	     -3.68499613	     -6.40437612	      0.00000000	      0.00000000	      0.00000000
